<?xml version="1.0" standalone="no"?>
<!DOCTYPE svg PUBLIC "-//W3C//DTD SVG 20010904//EN"
 "http://www.w3.org/TR/2001/REC-SVG-20010904/DTD/svg10.dtd">
<svg version="1.0" xmlns="http://www.w3.org/2000/svg"
 width="1000.000000pt" height="1000.000000pt" viewBox="0 0 1000.000000 1000.000000"
 preserveAspectRatio="xMidYMid meet">

<g transform="translate(0.000000,1000.000000) scale(0.100000,-0.100000)"
fill="#000000" stroke="none">
<path d="M4594 6652 l-1850 -2327 1002 -5 1002 -5 -599 -1649 c-330 -907 -598
-1651 -596 -1652 2 -2 836 1032 1853 2299 l1850 2302 -510 8 c-281 4 -737 10
-1013 15 l-501 7 609 1664 c335 915 608 1666 606 1667 -2 2 -836 -1044 -1853
-2324z"/>
<path d="M1221 8233 c-23 -164 -821 -6502 -821 -6522 l0 -21 753 0 752 0 109
858 c60 471 111 874 114 895 l5 37 -302 0 c-165 0 -301 2 -301 4 0 2 86 679
190 1505 105 827 190 1509 190 1517 0 12 48 14 305 14 204 0 305 3 305 10 0 6
50 406 110 890 61 484 110 882 110 885 0 3 -339 5 -754 5 l-754 0 -11 -77z"/>
<path d="M8100 8305 c0 -3 -49 -401 -110 -885 -60 -484 -110 -884 -110 -890 0
-7 99 -10 300 -10 165 0 300 -1 300 -3 0 -2 -85 -680 -190 -1506 -104 -827
-190 -1509 -190 -1517 0 -12 -50 -14 -299 -14 -165 0 -302 -4 -305 -8 -6 -10
-226 -1725 -226 -1760 l0 -22 753 0 752 0 414 3278 c227 1802 416 3292 419
3310 l5 32 -757 0 c-416 0 -756 -2 -756 -5z"/>
</g>
</svg>
